<svg width="80" height="80" viewBox="0 0 80 80" fill="none" xmlns="http://www.w3.org/2000/svg">
<rect width="80" height="80" rx="40" fill="#D5E5FA"/>
<g clip-path="url(#clip0_130_38)">
<path d="M40 40.0005C41.7059 40.0005 43.3734 39.4946 44.7918 38.5469C46.2102 37.5992 47.3157 36.2522 47.9685 34.6761C48.6213 33.1001 48.7921 31.3659 48.4593 29.6928C48.1265 28.0198 47.305 26.4829 46.0988 25.2767C44.8926 24.0705 43.3557 23.249 41.6827 22.9162C40.0096 22.5834 38.2754 22.7542 36.6994 23.407C35.1233 24.0598 33.7763 25.1653 32.8286 26.5837C31.8808 28.0021 31.375 29.6696 31.375 31.3755C31.3773 33.6623 32.2867 35.8548 33.9037 37.4718C35.5207 39.0888 37.7132 39.9982 40 40.0005ZM40 25.6255C41.1372 25.6255 42.2489 25.9627 43.1945 26.5945C44.1401 27.2264 44.8771 28.1244 45.3123 29.1751C45.7475 30.2257 45.8614 31.3819 45.6395 32.4973C45.4177 33.6127 44.87 34.6372 44.0659 35.4414C43.2617 36.2455 42.2372 36.7931 41.1218 37.015C40.0064 37.2369 38.8502 37.123 37.7996 36.6878C36.7489 36.2526 35.8509 35.5156 35.2191 34.57C34.5872 33.6244 34.25 32.5127 34.25 31.3755C34.25 29.8505 34.8558 28.388 35.9341 27.3096C37.0125 26.2313 38.475 25.6255 40 25.6255Z" fill="#146FF4"/>
<path d="M40 42.8755C36.5699 42.8793 33.2814 44.2436 30.856 46.669C28.4306 49.0944 27.0663 52.3829 27.0625 55.813C27.0625 56.1942 27.214 56.5599 27.4835 56.8295C27.7531 57.099 28.1188 57.2505 28.5 57.2505C28.8812 57.2505 29.2469 57.099 29.5165 56.8295C29.786 56.5599 29.9375 56.1942 29.9375 55.813C29.9375 53.1442 30.9977 50.5848 32.8847 48.6977C34.7718 46.8106 37.3313 45.7505 40 45.7505C42.6687 45.7505 45.2282 46.8106 47.1153 48.6977C49.0023 50.5848 50.0625 53.1442 50.0625 55.813C50.0625 56.1942 50.2139 56.5599 50.4835 56.8295C50.7531 57.099 51.1188 57.2505 51.5 57.2505C51.8812 57.2505 52.2469 57.099 52.5165 56.8295C52.7861 56.5599 52.9375 56.1942 52.9375 55.813C52.9337 52.3829 51.5694 49.0944 49.144 46.669C46.7186 44.2436 43.4301 42.8793 40 42.8755Z" fill="#146FF4"/>
</g>
<defs>
<clipPath id="clip0_130_38">
<rect width="34.5" height="34.5" fill="white" transform="translate(22.75 22.7501)"/>
</clipPath>
</defs>
</svg>
